<?xml version="1.0" encoding="utf-8" standalone="yes"?>
<!DOCTYPE svg PUBLIC "-//W3C//DTD SVG 1.1//EN" "http://www.w3.org/Graphics/SVG/1.1/DTD/svg11.dtd">
<svg width="804" height="444" viewBox="0 0 804 444" style="fill:none;stroke:none;fill-rule:evenodd;clip-rule:evenodd;stroke-linecap:round;stroke-linejoin:round;stroke-miterlimit:1.5;" version="1.1" xmlns="http://www.w3.org/2000/svg" xmlns:xlink="http://www.w3.org/1999/xlink"><style id="fontImports">@import url("https://fonts.googleapis.com/css2?family=Roboto:wght@400;700&amp;display=block");</style><g id="items" style="isolation: isolate"><g id="blend" style="mix-blend-mode:normal"><g id="g-root-8.cu_sy_i0wkjwf0yakn-fill" data-item-order="999903238" data-item-id="8.cu_sy_i0wkjwf0yakn" data-item-class="Part Indexed Fill Stroke" data-item-index="8" data-renderer-id="0" transform="translate(390.7742919921875, 299.82666015625)"><g id="8.cu_sy_i0wkjwf0yakn-fill" stroke="none" fill="url(#gradient-b55ede-387201868)"><g><path d="M 24.58793 28.3662C 30.03783 29.6212 35.62833 28.3392 39.85893 25.3576C 42.68263 34.8968 51.24253 41.8302 61.36473 41.8302C 67.84143 41.8302 73.67643 38.991 77.78113 34.4498C 82.83113 34.4007 87.65413 33.6393 87.65413 33.6393C 94.34053 32.2787 100.51113 29.5033 105.83763 25.6449C 106.28933 27.8897 106.52873 30.2131 106.52873 32.5906C 106.52873 52.0129 90.70483 67.761 71.18343 67.761C 69.13233 67.761 67.12323 67.5842 65.16833 67.2526C 65.16833 67.3091 65.16833 67.3631 65.16833 67.4171C 65.16833 85.5083 50.43043 100.1733 32.24933 100.1733C 23.67213 100.1733 15.86013 96.9067 10.00053 91.5575L 10.00053 10C 9.93633 18.5765 15.83793 26.3547 24.58543 28.3662L 24.58793 28.3662Z"></path></g></g></g><g id="g-root-8.line_sy_dl32fgf0ybcw-fill" data-item-order="999903243" data-item-id="8.line_sy_dl32fgf0ybcw" data-item-class="Curve Stroke Part Indexed" data-item-index="8" data-renderer-id="0" transform="translate(451.99993896484375, 380)"></g><g id="g-root-7.cu_sy_dl32fgf0ybcx-fill" data-item-order="999903246" data-item-id="7.cu_sy_dl32fgf0ybcx" data-item-class="Part Indexed Fill Stroke" data-item-index="7" data-renderer-id="0" transform="translate(284.699462890625, 299.82666015625)"><g id="7.cu_sy_dl32fgf0ybcx-fill" stroke="none" fill="url(#gradient-d95da8-390987769)"><g><path d="M 91.9409 28.3662C 86.491 29.6212 80.9004 28.3392 76.6698 25.3576C 73.8461 34.8968 65.2863 41.8302 55.164 41.8302C 48.6873 41.8302 42.8524 38.991 38.7477 34.4498C 33.6976 34.4007 28.8747 33.6393 28.8747 33.6393C 22.1882 32.2787 16.0176 29.5033 10.6911 25.6449C 10.2394 27.8897 10 30.2131 10 32.5906C 10 52.0129 25.8239 67.761 45.3453 67.761C 47.3964 67.761 49.4056 67.5842 51.3604 67.2526C 51.3604 67.3091 51.3604 67.3631 51.3604 67.4171C 51.3604 85.5083 66.0983 100.1733 84.2794 100.1733C 92.8566 100.1733 100.6686 96.9067 106.5282 91.5575L 106.5282 10C 106.5924 18.5765 100.6908 26.3547 91.9433 28.3662L 91.9409 28.3662Z"></path></g></g></g><g id="g-root-7.line_sy_4pg26kf0yc5m-fill" data-item-order="999903251" data-item-id="7.line_sy_4pg26kf0yc5m" data-item-class="Curve Stroke Part Indexed" data-item-index="7" data-renderer-id="0" transform="translate(218, 380)"></g><g id="g-root-6.cu_sy_9frgf0zocj-fill" data-item-order="999903254" data-item-id="6.cu_sy_9frgf0zocj" data-item-class="Part Indexed Fill Stroke" data-item-index="6" data-renderer-id="0" transform="translate(390.7791748046875, 203.0369873046875)"><g id="6.cu_sy_9frgf0zocj-fill" stroke="none" fill="url(#gradient-e05e5a-419626624)"><g><path d="M 117.184293 58.373924C 117.085493 58.226624 116.981893 58.084124 116.880693 57.939224C 113.489293 68.428924 106.486893 77.305024 97.322293 83.113524C 100.491493 88.217224 100.824693 94.841124 97.618493 100.413824C 93.592793 107.416024 85.296993 110.466424 77.862593 108.177324C 70.465293 121.125624 54.391993 127.403224 39.851593 122.147324C 42.675293 131.686524 51.235193 138.619924 61.357393 138.619924C 67.834093 138.619924 73.669093 135.780724 77.773793 131.239524C 82.823793 131.190424 87.646693 130.429024 87.646693 130.429024C 94.333193 129.068424 100.503793 126.293024 105.830293 122.434624C 117.581593 113.922024 125.220893 100.126524 125.220893 84.555224C 125.220893 74.856424 122.258993 65.847624 117.184293 58.373924ZM 77.865031 108.1775C 85.299331 110.464 93.595131 107.4137 97.620831 100.414C 100.824631 94.8412 100.491431 88.2173 97.324731 83.1137C 106.489331 77.3076 113.492031 68.429 116.883031 57.9393C 118.344031 53.4153 119.141031 48.5941 119.141031 43.5863C 119.141031 30.4121 113.672031 18.5102 104.870131 10C 102.964631 20.8139 96.542231 30.0781 87.609631 35.8006C 87.641731 36.2967 87.659031 36.7953 87.659031 37.2988C 87.659031 49.66 77.588531 59.6807 65.165831 59.6807L 65.123931 59.6929C 65.560831 61.2648 65.792831 62.9202 65.792831 64.6296C 65.792831 74.8368 57.477331 83.1087 47.221731 83.1087C 38.807431 83.1087 31.701431 77.5409 29.418231 69.9076L 29.408331 69.9076C 27.781831 70.19 26.108331 70.3349 24.400331 70.3349C 19.165131 70.3349 14.253331 68.9669 10.000531 66.5723L 10.000531 106.7849C 9.936331 115.361 15.837931 123.14 24.585431 125.151C 30.035331 126.406 35.625931 125.124 39.856431 122.142C 54.396931 127.401 70.470131 121.121 77.867531 108.1726L 77.865031 108.1775Z"></path></g></g></g><g id="g-root-6.line_sy_9frgf0zock-fill" data-item-order="999903259" data-item-id="6.line_sy_9frgf0zock" data-item-class="Curve Stroke Part Indexed" data-item-index="6" data-renderer-id="0" transform="translate(511.99993896484375, 302)"></g><g id="g-root-5.cu_sy_1lpwzd8f0zpqd-fill" data-item-order="999903262" data-item-id="5.cu_sy_1lpwzd8f0zpqd" data-item-class="Part Indexed Fill Stroke" data-item-index="5" data-renderer-id="0" transform="translate(266, 203.0419921875)"><g id="5.cu_sy_1lpwzd8f0zpqd-fill" stroke="none" fill="url(#gradient-dc8433-135949021)"><g><path d="M 57.3583 108.172441C 49.9239 110.459041 41.6281 107.408641 37.6024 100.408941C 34.3986 94.836241 34.7318 88.212341 37.8986 83.108641C 28.734 77.302641 21.7316 68.424041 18.3402 57.934341C 18.239 58.079241 18.1353 58.221741 18.0366 58.369041C 12.9619 65.842741 10 74.851541 10 84.550341C 10 100.121641 17.6392 113.917141 29.3906 122.429741C 34.717 126.288141 40.8876 129.061041 47.5741 130.424141C 47.5741 130.424141 52.3971 131.185541 57.4471 131.234641C 61.5518 135.778341 67.3867 138.615041 73.8634 138.615041C 83.9857 138.615041 92.5456 131.681641 95.3693 122.142441C 80.8288 127.400741 64.7556 121.120741 57.3583 108.172441ZM 110.825429 70.3349C 109.117429 70.3349 107.443929 70.19 105.817329 69.91L 105.807529 69.91C 103.524329 77.5409 96.418329 83.1087 88.004029 83.1087C 77.746029 83.1087 69.432929 74.8344 69.432929 64.6296C 69.432929 62.9202 69.667429 61.2648 70.101829 59.6929L 70.059829 59.6806C 57.637129 59.6806 47.566729 49.66 47.566729 37.2988C 47.566729 36.7953 47.584029 36.2968 47.616129 35.8006C 38.683529 30.0781 32.261129 20.8115 30.355629 10C 21.553829 18.5077 16.084229 30.4096 16.084229 43.5863C 16.084229 48.5941 16.879029 53.4153 18.342729 57.9393C 21.734029 68.429 28.736429 77.3051 37.901029 83.1137C 34.731829 88.2173 34.398629 94.8412 37.604829 100.414C 41.630629 107.4161 49.926329 110.466 57.360729 108.1775C 64.758029 121.126 80.831329 127.403 95.371729 122.147C 99.602329 125.129 105.192929 126.411 110.642829 125.156C 119.390229 123.142 125.292229 115.364 125.227229 106.7898L 125.227229 66.5772C 120.977229 68.9718 116.063029 70.3398 110.827929 70.3398L 110.825429 70.3349Z"></path></g></g></g><g id="g-root-5.line_sy_1lpwzd8f0zpqe-fill" data-item-order="999903267" data-item-id="5.line_sy_1lpwzd8f0zpqe" data-item-class="Curve Stroke Part Indexed" data-item-index="5" data-renderer-id="0" transform="translate(218, 302.0001220703125)"></g><g id="g-root-2.cu_sy_1cu9z4cf0zqj3-fill" data-item-order="999903270" data-item-id="2.cu_sy_1cu9z4cf0zqj3" data-item-class="Part Indexed Fill Stroke" data-item-index="2" data-renderer-id="0" transform="translate(390.77484130859375, 110)"><g id="2.cu_sy_1cu9z4cf0zqj3-fill" stroke="none" fill="url(#gradient-3bc382-226276808)"><g><path d="M 61.7715 59.8943C 62.8156 63.0331 62.8131 66.5379 61.5173 69.8609C 59.481 75.0849 54.7864 78.4988 49.5685 79.1668L 46.5918 79.3436C 40.7741 79.8447 35.4624 83.5484 33.2089 89.3299C 31.7181 93.1539 31.8341 97.2015 33.2262 100.7406C 30.2396 99.127 26.8878 98.1839 23.2496 98.1839C 18.2291 98.1839 13.6185 99.9301 10 102.8479L 10 33.8284C 10 20.6666 20.7221 10 33.9469 10C 44.2568 10 53.0462 16.4839 56.4203 25.5786C 71.0941 29.8104 82.1888 42.4196 84.1313 57.8607C 81.2657 56.311 77.9657 55.4243 74.4756 55.4243C 69.6551 55.4243 65.2443 57.0969 61.769 59.8968L 61.7715 59.8943Z"></path></g></g></g><g id="g-root-2.line_sy_18f2y30f0zo5k-fill" data-item-order="999903275" data-item-id="2.line_sy_18f2y30f0zo5k" data-item-class="Curve Stroke Part Indexed" data-item-index="2" data-renderer-id="0" transform="translate(457.99993896484375, 110)"></g><g id="g-root-1.cu_sy_18f2y30f0zo5l-fill" data-item-order="999903278" data-item-id="1.cu_sy_18f2y30f0zo5l" data-item-class="Part Indexed Indexed_1 Fill Stroke" data-item-index="1" data-renderer-id="0" transform="translate(307.0938720703125, 110)"><g id="1.cu_sy_18f2y30f0zo5l-fill" stroke="none" fill="url(#gradient-17afe2-38714328)"><g><path d="M 32.3598 59.8943C 31.3158 63.0331 31.3182 66.5379 32.6141 69.8609C 34.6504 75.0849 39.345 78.4988 44.5629 79.1668L 47.5396 79.3436C 53.3572 79.8447 58.6689 83.5484 60.9224 89.3299C 62.4132 93.1539 62.2972 97.2015 60.9051 100.7406C 63.8917 99.127 67.2436 98.1839 70.8818 98.1839C 75.9022 98.1839 80.5129 99.9301 84.1313 102.8479L 84.1313 33.8284C 84.1313 20.6666 73.4093 10 60.1844 10C 49.8745 10 41.0851 16.4839 37.711 25.5786C 23.0373 29.8104 11.9425 42.4196 10 57.8607C 12.8656 56.311 16.1657 55.4243 19.6558 55.4243C 24.4763 55.4243 28.887 57.0969 32.3623 59.8968L 32.3598 59.8943Z"></path></g></g></g><g id="g-root-1.line_sy_13z9fykf0zoxu-fill" data-item-order="999903283" data-item-id="1.line_sy_13z9fykf0zoxu" data-item-class="Curve Stroke Part Indexed Indexed_1" data-item-index="1" data-renderer-id="0" transform="translate(218, 110)"></g><g id="g-root-4.cu_sy_v3mfpof0zpqj-fill" data-item-order="999903286" data-item-id="4.cu_sy_v3mfpof0zpqj" data-item-class="Part Indexed Fill Stroke" data-item-index="4" data-renderer-id="0" transform="translate(390.77484130859375, 155.42431640625)"><g id="4.cu_sy_v3mfpof0zpqj-fill" stroke="none" fill="url(#gradient-e2cc09-3952618)"><g><path d="M 23.8642 82.981C 36.7484 89.9292 52.8562 85.1694 59.8389 72.3489C 61.9418 68.488 62.9785 64.3348 63.0476 60.2283L 63.0895 57.6151C 63.2598 55.2131 63.9386 52.8087 65.1653 50.554C 67.4114 46.4279 71.0891 43.5691 75.2531 42.2502C 80.9843 35.5157 84.43 26.0526 84.43 16.538C 84.4029 15.1528 84.3017 13.7848 84.1338 12.4364C 81.2682 10.8866 77.9681 10 74.478 10C 69.6576 10 65.2468 11.6726 61.7715 14.4724C 62.8156 17.6113 62.8131 21.116 61.5173 24.439C 59.481 29.663 54.7864 33.0769 49.5685 33.7449L 46.5918 33.9218C 40.7741 34.4228 35.4624 38.1265 33.2089 43.908C 31.7181 47.732 31.8341 51.7796 33.2262 55.3187C 30.2396 53.7051 26.8878 52.762 23.2496 52.762C 18.2291 52.762 13.6185 54.5082 10 57.426L 10 61.0806C 10.4542 69.9739 15.4178 78.4276 23.8617 82.981L 23.8642 82.981ZM 105.456983 50.890523C 105.456983 35.933323 96.919283 22.962923 84.432383 16.535523C 84.432383 26.052623 80.986783 35.513323 75.255483 42.250223C 71.091583 43.569123 67.413883 46.430323 65.167783 50.554023C 63.938583 52.808723 63.262283 55.213123 63.091983 57.615123L 63.049983 60.228323C 62.980883 64.334823 61.944183 68.488023 59.841283 72.348923C 52.858583 85.169323 36.750783 89.929123 23.866583 82.981023C 15.422683 78.427523 10.459083 69.973923 10.004883 61.080623L 10.004883 114.189823C 14.255183 116.584523 19.169483 117.952523 24.404683 117.952523C 26.112683 117.952523 27.786083 117.807523 29.412683 117.527523L 29.422583 117.527523C 31.705683 125.158523 38.811783 130.726523 47.226083 130.726523C 57.484083 130.726523 65.797183 122.451523 65.797183 112.247123C 65.797183 110.537723 65.562683 108.882323 65.128283 107.310523L 65.170183 107.298223C 77.592883 107.298223 87.663383 97.277623 87.663383 84.916423C 87.663383 84.412923 87.613983 83.418223 87.613983 83.418223C 96.546583 77.695623 102.968983 68.429023 104.874483 57.617623C 105.259483 55.434123 105.461883 53.186923 105.461883 50.895423L 105.456983 50.890523Z"></path></g></g></g><g id="g-root-4.line_sy_qnsxl8f0zqis-fill" data-item-order="999903291" data-item-id="4.line_sy_qnsxl8f0zqis" data-item-class="Curve Stroke Part Indexed" data-item-index="4" data-renderer-id="0" transform="translate(501.99993896484375, 206)"></g><g id="g-root-3.cu_sy_qnsxl8f0zqit-fill" data-item-order="999903294" data-item-id="3.cu_sy_qnsxl8f0zqit" data-item-class="Part Indexed Fill Stroke" data-item-index="3" data-renderer-id="0" transform="translate(285.77069091796875, 155.42431640625)"><defs><linearGradient id="gradient-b55ede-387201868" x2="0" y2="1"><stop offset="0" stop-color="#CD6AFB"></stop><stop offset="1" stop-color="#9d51c0"></stop></linearGradient><linearGradient id="gradient-d95da8-390987769" x2="0" y2="1"><stop offset="0" stop-color="#F669BE"></stop><stop offset="1" stop-color="#bb5091"></stop></linearGradient><linearGradient id="gradient-e05e5a-419626624" x2="0" y2="1"><stop offset="0" stop-color="#FD6A65"></stop><stop offset="1" stop-color="#c2514e"></stop></linearGradient><linearGradient id="gradient-dc8433-135949021" x2="0" y2="1"><stop offset="0" stop-color="#F99539"></stop><stop offset="1" stop-color="#be722c"></stop></linearGradient><linearGradient id="gradient-3bc382-226276808" x2="0" y2="1"><stop offset="0" stop-color="#44E095"></stop><stop offset="1" stop-color="#32a56e"></stop></linearGradient><linearGradient id="gradient-17afe2-38714328" x2="0" y2="1"><stop offset="0" stop-color="#1AC6FF"></stop><stop offset="1" stop-color="#1498c4"></stop></linearGradient><linearGradient id="gradient-e2cc09-3952618" x2="0" y2="1"><stop offset="0" stop-color="#FFE60A"></stop><stop offset="1" stop-color="#c4b108"></stop></linearGradient><linearGradient id="gradient-92c031-119406507" x2="0" y2="1"><stop offset="0" stop-color="#A8DD38"></stop><stop offset="1" stop-color="#7ba229"></stop></linearGradient></defs><g id="3.cu_sy_qnsxl8f0zqit-fill" stroke="none" fill="url(#gradient-92c031-119406507)"><g><path d="M 40.201495 42.2502C 44.365395 43.5691 48.043095 46.4303 50.289195 50.554C 51.518395 52.8087 52.194695 55.2131 52.364995 57.6151L 52.406995 60.2283C 52.476095 64.3348 53.510295 68.488 55.615695 72.3489C 62.598395 85.1694 78.706195 89.9292 91.590395 82.981C 100.034295 78.4276 104.997895 69.9739 105.452095 61.0806L 105.452095 57.426C 101.833695 54.5082 97.222995 52.762 92.202595 52.762C 88.566795 52.762 85.212495 53.7051 82.225895 55.3187C 83.617995 51.7796 83.731495 47.7296 82.243195 43.908C 79.989695 38.1265 74.677995 34.4228 68.860295 33.9218L 65.883595 33.7449C 60.665795 33.0769 55.971095 29.663 53.934795 24.439C 52.638995 21.116 52.636495 17.6113 53.680595 14.4724C 50.205295 11.6726 45.794595 10 40.974095 10C 37.483995 10 34.183895 10.8891 31.318295 12.4364C 31.147995 13.7823 31.049295 15.1503 31.022095 16.538C 31.022095 26.0551 34.467795 35.5157 40.198995 42.2526L 40.201495 42.2502ZM 91.5904 82.980942C 78.7061 89.929042 62.5984 85.169242 55.6157 72.348742C 53.5127 68.487842 52.4761 64.334742 52.407 60.228242L 52.365 57.615042C 52.1947 55.213042 51.5159 52.808542 50.2892 50.553942C 48.0431 46.427742 44.3654 43.568942 40.2015 42.250042C 34.4702 35.515642 31.0245 26.052542 31.0245 16.537842C 18.5352 22.965242 10 35.938042 10 50.892842C 10 53.186742 10.2024 55.431542 10.5874 57.615042C 12.4929 68.428942 18.9153 77.693042 27.8479 83.415642C 27.8479 83.415642 27.7985 84.410342 27.7985 84.913842C 27.7985 97.275042 37.869 107.295642 50.2917 107.295642L 50.3336 107.307942C 49.8968 108.879742 49.6647 110.535142 49.6647 112.244542C 49.6647 122.451842 57.9803 130.723842 68.2358 130.723842C 76.6501 130.723842 83.7562 125.155842 86.0393 117.522842L 86.0492 117.522842C 87.6757 117.804842 89.3492 117.949842 91.0572 117.949842C 96.2924 117.949842 101.2042 116.581842 105.457 114.187242L 105.457 61.078042C 105.0028 69.971342 100.0392 78.424942 91.5953 82.978442L 91.5904 82.980942Z"></path></g></g></g><g id="g-root-3.line_sy_hssefgf0zo5q-fill" data-item-order="999903299" data-item-id="3.line_sy_hssefgf0zo5q" data-item-class="Curve Stroke Part Indexed" data-item-index="3" data-renderer-id="0" transform="translate(218.00006103515625, 206)"></g><g id="g-root-1_dhcb2kf12jv0-fill" data-item-order="1000000000" data-item-id="1_dhcb2kf12jv0" data-item-class="Icon Stroke Indexed" data-item-index="4" data-renderer-id="0" transform="translate(566, 188)"></g><g id="g-root-tx_synthesi_1hjgrv0f0so3x-fill" data-item-order="1000000000" data-item-id="tx_synthesi_1hjgrv0f0so3x" data-item-class="Label Stroke Indexed ColorStrokeGray" data-item-index="4" data-renderer-id="0" transform="translate(614, 182)"><g id="tx_synthesi_1hjgrv0f0so3x-fill" stroke="none" fill="#A3A3A3"><g><text style="font: 20px Roboto, sans-serif; white-space: pre;" font-size="20px" font-family="Roboto, sans-serif"><tspan x="12" y="34" dominant-baseline="ideographic">Synthesis </tspan><tspan x="12" y="58" dominant-baseline="ideographic">Techniques</tspan></text></g></g></g><g id="g-root-1_mb3w24f15cea-fill" data-item-order="1000000000" data-item-id="1_mb3w24f15cea" data-item-class="Icon Stroke Indexed" data-item-index="3" data-renderer-id="0" transform="translate(170, 188)"></g><g id="g-root-tx_software_94n9jgf0soax-fill" data-item-order="1000000000" data-item-id="tx_software_94n9jgf0soax" data-item-class="Label Stroke Indexed ColorStrokeGray" data-item-index="8" data-renderer-id="0" transform="translate(614, 386)"><g id="tx_software_94n9jgf0soax-fill" stroke="none" fill="#A3A3A3"><g><text style="font: 20px Roboto, sans-serif; white-space: pre;" font-size="20px" font-family="Roboto, sans-serif"><tspan x="12" y="34" dominant-baseline="ideographic">Software &amp; Tools</tspan></text></g></g></g><g id="g-root-tx_comprehe_dcywb0f0zoxz-fill" data-item-order="1000000000" data-item-id="tx_comprehe_dcywb0f0zoxz" data-item-class="Label Stroke Title ColorStrokeGray" data-item-index="none" data-renderer-id="0" transform="translate(230, 2)"><g id="tx_comprehe_dcywb0f0zoxz-fill" stroke="none" fill="#A3A3A3"><g><text style="font: 20px Roboto, sans-serif; white-space: pre;" font-size="20px" font-family="Roboto, sans-serif"><tspan x="16.13" y="34" dominant-baseline="ideographic">Comprehensive Skill Set Overview</tspan></text></g></g></g><g id="g-root-tx_purifica_1qf3s3wf0snb8-fill" data-item-order="1000000000" data-item-id="tx_purifica_1qf3s3wf0snb8" data-item-class="Label Stroke Indexed ColorStrokeGray" data-item-index="5" data-renderer-id="0" transform="translate(50, 278)"><g id="tx_purifica_1qf3s3wf0snb8-fill" stroke="none" fill="#A3A3A3"><g><text style="font: 20px Roboto, sans-serif; white-space: pre;" font-size="20px" font-family="Roboto, sans-serif"><tspan x="14.48" y="34" dominant-baseline="ideographic">Purification </tspan><tspan x="13.75" y="58" dominant-baseline="ideographic">Techniques</tspan></text></g></g></g><g id="g-root-2_8yefikf115am-fill" data-item-order="1000000000" data-item-id="2_8yefikf115am" data-item-class="Icon Stroke Indexed" data-item-index="5" data-renderer-id="0" transform="translate(170, 284)"></g><g id="g-root-resi_zoftosf0yayp-fill" data-item-order="1000000000" data-item-id="resi_zoftosf0yayp" data-item-class="Icon Stroke Indexed" data-item-index="6" data-renderer-id="0" transform="translate(566, 284)"></g><g id="g-root-tx_mechanic_1uuat58f0spor-fill" data-item-order="1000000000" data-item-id="tx_mechanic_1uuat58f0spor" data-item-class="Label Stroke Indexed ColorStrokeGray" data-item-index="6" data-renderer-id="0" transform="translate(614, 278)"><g id="tx_mechanic_1uuat58f0spor-fill" stroke="none" fill="#A3A3A3"><g><text style="font: 20px Roboto, sans-serif; white-space: pre;" font-size="20px" font-family="Roboto, sans-serif"><tspan x="12" y="34" dominant-baseline="ideographic">Mechanical &amp; </tspan><tspan x="12" y="58" dominant-baseline="ideographic">Electrical Testing</tspan></text></g></g></g><g id="g-root-tx_material_1d3n9qkf0sow6-fill" data-item-order="1000000000" data-item-id="tx_material_1d3n9qkf0sow6" data-item-class="Label Stroke Indexed ColorStrokeGray" data-item-index="3" data-renderer-id="0" transform="translate(2, 182)"><g id="tx_material_1d3n9qkf0sow6-fill" stroke="none" fill="#A3A3A3"><g><text style="font: 20px Roboto, sans-serif; white-space: pre;" font-size="20px" font-family="Roboto, sans-serif"><tspan x="80.86" y="34" dominant-baseline="ideographic">Materials </tspan><tspan x="17.98" y="58" dominant-baseline="ideographic">Characterization</tspan></text></g></g></g><g id="g-root-line_1lw5te4f184cg-fill" data-item-order="1000000000" data-item-id="line_1lw5te4f184cg" data-item-class="Icon Stroke Indexed" data-item-index="2" data-renderer-id="0" transform="translate(566, 92)"></g><g id="g-root-tx_simulati_4otrf0f0sp36-fill" data-item-order="1000000000" data-item-id="tx_simulati_4otrf0f0sp36" data-item-class="Label Stroke Indexed ColorStrokeGray" data-item-index="7" data-renderer-id="0" transform="translate(38, 374)"><g id="tx_simulati_4otrf0f0sp36-fill" stroke="none" fill="#A3A3A3"><g><text style="font: 20px Roboto, sans-serif; white-space: pre;" font-size="20px" font-family="Roboto, sans-serif"><tspan x="15.78" y="34" dominant-baseline="ideographic">Simulation &amp; </tspan><tspan x="45.28" y="58" dominant-baseline="ideographic">Modeling</tspan></text></g></g></g><g id="g-root-2_quo8p8f0vifi-fill" data-item-order="1000000000" data-item-id="2_quo8p8f0vifi" data-item-class="Icon Stroke Indexed" data-item-index="7" data-renderer-id="0" transform="translate(170, 380)"></g><g id="g-root-2_94n9jgf0soaw-fill" data-item-order="1000000000" data-item-id="2_94n9jgf0soaw" data-item-class="Icon Stroke Indexed Indexed_1" data-item-index="1" data-renderer-id="0" transform="translate(170, 92)"></g><g id="g-root-tx_programm_18ntrm4f0spog-fill" data-item-order="1000000000" data-item-id="tx_programm_18ntrm4f0spog" data-item-class="Label Stroke Indexed Indexed_1 ColorStrokeGray" data-item-index="1" data-renderer-id="0" transform="translate(26, 86)"><g id="tx_programm_18ntrm4f0spog-fill" stroke="none" fill="#A3A3A3"><g><text style="font: 20px Roboto, sans-serif; white-space: pre;" font-size="20px" font-family="Roboto, sans-serif"><tspan x="18.75" y="34" dominant-baseline="ideographic">Programming </tspan><tspan x="42.06" y="58" dominant-baseline="ideographic">Languages</tspan></text></g></g></g><g id="g-root-code_1430dn0f0snbf-fill" data-item-order="1000000000" data-item-id="code_1430dn0f0snbf" data-item-class="Icon Stroke Indexed" data-item-index="8" data-renderer-id="0" transform="translate(566, 380)"></g><g id="g-root-tx_machinel_14809hof0spov-fill" data-item-order="1000000000" data-item-id="tx_machinel_14809hof0spov" data-item-class="Label Stroke Indexed ColorStrokeGray" data-item-index="2" data-renderer-id="0" transform="translate(614, 98)"><g id="tx_machinel_14809hof0spov-fill" stroke="none" fill="#A3A3A3"><g><text style="font: 20px Roboto, sans-serif; white-space: pre;" font-size="20px" font-family="Roboto, sans-serif"><tspan x="12" y="34" dominant-baseline="ideographic">Machine Learning</tspan></text></g></g></g><g id="g-root-8.cu_sy_i0wkjwf0yakn-stroke" data-item-order="999903238" data-item-id="8.cu_sy_i0wkjwf0yakn" data-item-class="Part Indexed Fill Stroke" data-item-index="8" data-renderer-id="0" transform="translate(390.7742919921875, 299.82666015625)"><g id="8.cu_sy_i0wkjwf0yakn-stroke" fill="none" stroke-linecap="round" stroke-linejoin="round" stroke-miterlimit="4" stroke="#000000" stroke-width="2"><g><path d="M 24.58793 28.3662C 30.03783 29.6212 35.62833 28.3392 39.85893 25.3576C 42.68263 34.8968 51.24253 41.8302 61.36473 41.8302C 67.84143 41.8302 73.67643 38.991 77.78113 34.4498C 82.83113 34.4007 87.65413 33.6393 87.65413 33.6393C 94.34053 32.2787 100.51113 29.5033 105.83763 25.6449C 106.28933 27.8897 106.52873 30.2131 106.52873 32.5906C 106.52873 52.0129 90.70483 67.761 71.18343 67.761C 69.13233 67.761 67.12323 67.5841 65.16833 67.2526C 65.16833 67.3091 65.16833 67.3631 65.16833 67.4171C 65.16833 85.5083 50.43043 100.1733 32.24933 100.1733C 23.67213 100.1733 15.86013 96.9067 10.00053 91.5575L 10.00053 10C 9.93633 18.5765 15.83793 26.3547 24.58543 28.3662L 24.58793 28.3662ZM 65.16586 67.252713C 55.59886 65.619413 47.34256 60.159613 42.05066 52.514013C 42.05066 52.514013 42.04816 52.509113 42.04576 52.506613C 41.89026 52.509113 41.73226 52.511513 41.57676 52.511513C 28.54686 52.511513 17.98526 42.002213 17.98526 29.036813C 17.98526 27.872613 18.07166 26.725713 18.23456 25.605713M 10.002971 56.36499C 9.938771 64.94149 15.840371 72.71969 24.587871 74.73119M 67.098541 41.063912C 69.063241 41.032012 71.065041 41.405312 72.985341 42.233012C 77.489841 44.175712 80.473941 48.159412 81.315641 52.626912"></path></g></g></g><g id="g-root-8.line_sy_dl32fgf0ybcw-stroke" data-item-order="999903243" data-item-id="8.line_sy_dl32fgf0ybcw" data-item-class="Curve Stroke Part Indexed" data-item-index="8" data-renderer-id="0" transform="translate(451.99993896484375, 380)"><g id="8.line_sy_dl32fgf0ybcw-stroke" fill="none" stroke-linecap="round" stroke-linejoin="round" stroke-miterlimit="4" stroke="#000000" stroke-width="2"><g><path d="M 112.000095 28.000034L 28.000095 28.000034L 11.410095 11.410034"></path><path d="M 20.210095 11.110034L 11.110095 11.110034L 11.110095 20.210034" stroke-dasharray="none"></path></g></g></g><g id="g-root-7.cu_sy_dl32fgf0ybcx-stroke" data-item-order="999903246" data-item-id="7.cu_sy_dl32fgf0ybcx" data-item-class="Part Indexed Fill Stroke" data-item-index="7" data-renderer-id="0" transform="translate(284.699462890625, 299.82666015625)"><g id="7.cu_sy_dl32fgf0ybcx-stroke" fill="none" stroke-linecap="round" stroke-linejoin="round" stroke-miterlimit="4" stroke="#000000" stroke-width="2"><g><path d="M 91.9409 28.3662C 86.491 29.6212 80.9004 28.3392 76.6698 25.3576C 73.8461 34.8968 65.2863 41.8302 55.164 41.8302C 48.6873 41.8302 42.8524 38.991 38.7477 34.4498C 33.6976 34.4007 28.8747 33.6393 28.8747 33.6393C 22.1882 32.2787 16.0176 29.5033 10.6911 25.6449C 10.2394 27.8897 10 30.2131 10 32.5906C 10 52.0129 25.8239 67.761 45.3453 67.761C 47.3964 67.761 49.4056 67.5841 51.3604 67.2526C 51.3604 67.3091 51.3604 67.3631 51.3604 67.4171C 51.3604 85.5083 66.0983 100.1733 84.2794 100.1733C 92.8566 100.1733 100.6686 96.9067 106.5282 91.5575L 106.5282 10C 106.5924 18.5765 100.6908 26.3547 91.9433 28.3662L 91.9409 28.3662ZM 51.360351 67.252713C 60.927251 65.619413 69.183551 60.159613 74.475451 52.514013C 74.475451 52.514013 74.477951 52.509113 74.480451 52.506613C 74.635951 52.509113 74.793851 52.511513 74.949351 52.511513C 87.979251 52.511513 98.540951 42.002213 98.540951 29.036813C 98.540951 27.872613 98.454551 26.725713 98.291651 25.605713M 106.523376 56.36499C 106.587476 64.94149 100.685976 72.71969 91.938476 74.73119M 49.427793 41.063912C 47.463093 41.032012 45.461293 41.405312 43.540993 42.233012C 39.036493 44.175712 36.052393 48.159412 35.210693 52.626912"></path></g></g></g><g id="g-root-7.line_sy_4pg26kf0yc5m-stroke" data-item-order="999903251" data-item-id="7.line_sy_4pg26kf0yc5m" data-item-class="Curve Stroke Part Indexed" data-item-index="7" data-renderer-id="0" transform="translate(218, 380)"><g id="7.line_sy_4pg26kf0yc5m-stroke" fill="none" stroke-linecap="round" stroke-linejoin="round" stroke-miterlimit="4" stroke="#000000" stroke-width="2"><g><path d="M 10 28.000034L 94 28.000034L 110.59 11.410034"></path><path d="M 110.9 20.210034L 110.9 11.110034L 101.7 11.110034" stroke-dasharray="none"></path></g></g></g><g id="g-root-6.cu_sy_9frgf0zocj-stroke" data-item-order="999903254" data-item-id="6.cu_sy_9frgf0zocj" data-item-class="Part Indexed Fill Stroke" data-item-index="6" data-renderer-id="0" transform="translate(390.7791748046875, 203.0369873046875)"><g id="6.cu_sy_9frgf0zocj-stroke" fill="none" stroke-linecap="round" stroke-linejoin="round" stroke-miterlimit="4" stroke="#000000" stroke-width="2"><g><path d="M 117.184293 58.373924C 117.085493 58.226624 116.981893 58.084124 116.880693 57.939224C 113.489293 68.428924 106.486893 77.305024 97.322293 83.113524C 100.491493 88.217224 100.824693 94.841124 97.618493 100.413824C 93.592793 107.416024 85.296993 110.466424 77.862593 108.177324C 70.465293 121.125624 54.391993 127.403224 39.851593 122.147324C 42.675293 131.686524 51.235193 138.619924 61.357393 138.619924C 67.834093 138.619924 73.669093 135.780724 77.773793 131.239524C 82.823793 131.190424 87.646693 130.429024 87.646693 130.429024C 94.333193 129.068424 100.503793 126.293024 105.830293 122.434624C 117.581593 113.922024 125.220893 100.126524 125.220893 84.555224C 125.220893 74.856424 122.258993 65.847624 117.184293 58.373924ZM 77.865031 108.1775C 85.299331 110.464 93.595131 107.4137 97.620831 100.414C 100.824631 94.8412 100.491431 88.2173 97.324731 83.1137C 106.489331 77.3076 113.491731 68.429 116.883031 57.9393C 118.344231 53.4153 119.141531 48.5941 119.141531 43.5863C 119.141531 30.4121 113.671931 18.5102 104.870131 10C 102.964631 20.8139 96.542231 30.0781 87.609631 35.8006C 87.641731 36.2967 87.659031 36.7953 87.659031 37.2988C 87.659031 49.66 77.588531 59.6807 65.165831 59.6807L 65.123931 59.6929C 65.560831 61.2648 65.792831 62.9202 65.792831 64.6296C 65.792831 74.8368 57.477331 83.1087 47.221731 83.1087C 38.807431 83.1087 31.701431 77.5409 29.418231 69.9076L 29.408331 69.9076C 27.781831 70.19 26.108331 70.3349 24.400331 70.3349C 19.165131 70.3349 14.253331 68.9669 10.000531 66.5723L 10.000531 106.7849C 9.936331 115.3614 15.837931 123.1396 24.585431 125.1511C 30.035331 126.4062 35.625931 125.1241 39.856431 122.1425C 54.396931 127.4009 70.470131 121.1208 77.867531 108.1726L 77.865031 108.1775ZM 100.770336 58.651443C 105.808036 49.470843 104.164236 37.723643 96.102936 30.286743M 81.310808 94.234521C 78.395808 84.975321 70.487508 78.646021 61.456208 77.263321M 88.394562 76.858048C 91.882162 77.818348 95.068662 79.940448 97.314762 83.113748M 39.854035 122.147311C 47.105735 114.931511 47.105735 103.228511 39.854035 96.012711"></path></g></g></g><g id="g-root-6.line_sy_9frgf0zock-stroke" data-item-order="999903259" data-item-id="6.line_sy_9frgf0zock" data-item-class="Curve Stroke Part Indexed" data-item-index="6" data-renderer-id="0" transform="translate(511.99993896484375, 302)"><g id="6.line_sy_9frgf0zock-stroke" fill="none" stroke-linecap="round" stroke-linejoin="round" stroke-miterlimit="4" stroke="#000000" stroke-width="2"><g><path d="M 52.000061 10L 12.000061 10"></path><path d="M 18.000061 3.5L 11.500061 10L 18.000061 16.5" stroke-dasharray="none"></path></g></g></g><g id="g-root-5.cu_sy_1lpwzd8f0zpqd-stroke" data-item-order="999903262" data-item-id="5.cu_sy_1lpwzd8f0zpqd" data-item-class="Part Indexed Fill Stroke" data-item-index="5" data-renderer-id="0" transform="translate(266, 203.0419921875)"><g id="5.cu_sy_1lpwzd8f0zpqd-stroke" fill="none" stroke-linecap="round" stroke-linejoin="round" stroke-miterlimit="4" stroke="#000000" stroke-width="2"><g><path d="M 57.3583 108.172441C 49.9239 110.459041 41.6281 107.408641 37.6024 100.408941C 34.3986 94.836241 34.7318 88.212341 37.8986 83.108641C 28.734 77.302641 21.7316 68.424041 18.3402 57.934341C 18.239 58.079241 18.1353 58.221741 18.0366 58.369041C 12.9619 65.842741 10 74.851541 10 84.550341C 10 100.121641 17.6392 113.917141 29.3906 122.429741C 34.717 126.288141 40.8876 129.061041 47.5741 130.424141C 47.5741 130.424141 52.3971 131.185541 57.4471 131.234641C 61.5518 135.778341 67.3867 138.615041 73.8634 138.615041C 83.9857 138.615041 92.5456 131.681641 95.3693 122.142441C 80.8288 127.400741 64.7556 121.120741 57.3583 108.172441ZM 110.825429 70.3349C 109.117429 70.3349 107.443929 70.19 105.817329 69.91L 105.807529 69.91C 103.524329 77.5409 96.418329 83.1087 88.004029 83.1087C 77.746029 83.1087 69.432929 74.8344 69.432929 64.6296C 69.432929 62.9202 69.667429 61.2648 70.101829 59.6929L 70.059829 59.6806C 57.637129 59.6806 47.566729 49.66 47.566729 37.2988C 47.566729 36.7953 47.584029 36.2968 47.616129 35.8006C 38.683529 30.0781 32.261129 20.8115 30.355629 10C 21.553829 18.5077 16.084229 30.4096 16.084229 43.5863C 16.084229 48.5941 16.879029 53.4153 18.342629 57.9393C 21.734029 68.429 28.736429 77.3051 37.901029 83.1137C 34.731829 88.2173 34.398629 94.8412 37.604829 100.414C 41.630629 107.4161 49.926329 110.4665 57.360729 108.1775C 64.758029 121.1257 80.831329 127.4033 95.371729 122.1474C 99.602329 125.129 105.192929 126.4111 110.642829 125.156C 119.390229 123.1421 125.291829 115.3638 125.227629 106.7898L 125.227629 66.5772C 120.977329 68.9718 116.063029 70.3398 110.827929 70.3398L 110.825429 70.3349ZM 34.450402 58.64656C 29.412702 49.46596 31.056602 37.71876 39.117902 30.28186M 53.912598 94.229638C 56.827598 84.970438 64.735898 78.641138 73.767198 77.258438M 46.826206 76.853165C 43.338606 77.813465 40.152106 79.935565 37.906006 83.108865M 95.366901 122.142428C 88.115201 114.926628 88.115201 103.223628 95.366901 96.007828"></path></g></g></g><g id="g-root-5.line_sy_1lpwzd8f0zpqe-stroke" data-item-order="999903267" data-item-id="5.line_sy_1lpwzd8f0zpqe" data-item-class="Curve Stroke Part Indexed" data-item-index="5" data-renderer-id="0" transform="translate(218, 302.0001220703125)"><g id="5.line_sy_1lpwzd8f0zpqe-stroke" fill="none" stroke-linecap="round" stroke-linejoin="round" stroke-miterlimit="4" stroke="#000000" stroke-width="2"><g><path d="M 10 9.999878L 50 9.999878"></path><path d="M 44 16.499878L 50.5 9.999878L 44 3.499878" stroke-dasharray="none"></path></g></g></g><g id="g-root-2.cu_sy_1cu9z4cf0zqj3-stroke" data-item-order="999903270" data-item-id="2.cu_sy_1cu9z4cf0zqj3" data-item-class="Part Indexed Fill Stroke" data-item-index="2" data-renderer-id="0" transform="translate(390.77484130859375, 110)"><g id="2.cu_sy_1cu9z4cf0zqj3-stroke" fill="none" stroke-linecap="round" stroke-linejoin="round" stroke-miterlimit="4" stroke="#000000" stroke-width="2"><g><path d="M 61.7715 59.8943C 62.8156 63.0331 62.8131 66.5379 61.5173 69.8609C 59.481 75.0849 54.7864 78.4988 49.5685 79.1668L 46.5918 79.3436C 40.7741 79.8447 35.4624 83.5484 33.2089 89.3299C 31.7181 93.1539 31.8341 97.2015 33.2262 100.7406C 30.2396 99.127 26.8878 98.1839 23.2496 98.1839C 18.2291 98.1839 13.6185 99.9301 10 102.8479L 10 33.8284C 10 20.6666 20.7221 10 33.9469 10C 44.2568 10 53.0462 16.4839 56.4203 25.5786C 71.0941 29.8104 82.1888 42.4196 84.1313 57.8607C 81.2657 56.311 77.9657 55.4243 74.4756 55.4243C 69.6551 55.4243 65.2443 57.0969 61.769 59.8968L 61.7715 59.8943ZM 10.002453 64.604847C 9.938253 56.028347 15.839853 48.250147 24.587353 46.238647M 40.374198 59.793642C 49.748698 56.939742 55.025798 47.066442 52.157698 37.736042C 49.289598 28.407942 39.367198 23.156942 29.992798 26.010942M 56.422811 25.578613C 54.253211 26.597913 52.310711 28.172313 50.827311 30.262413C 50.343511 30.945213 49.928811 31.652613 49.580811 32.382013M 29.963135 72.385742C 32.999035 75.328042 36.817435 77.555642 41.208435 78.705142C 42.640035 79.080842 44.076535 79.326442 45.503235 79.449242"></path></g></g></g><g id="g-root-2.line_sy_18f2y30f0zo5k-stroke" data-item-order="999903275" data-item-id="2.line_sy_18f2y30f0zo5k" data-item-class="Curve Stroke Part Indexed" data-item-index="2" data-renderer-id="0" transform="translate(457.99993896484375, 110)"><g id="2.line_sy_18f2y30f0zo5k-stroke" fill="none" stroke-linecap="round" stroke-linejoin="round" stroke-miterlimit="4" stroke="#000000" stroke-width="2"><g><path d="M 106.000095 10L 22.000095 10L 11.410095 20.59"></path><path d="M 11.110095 11.7L 11.110095 20.9L 20.210095 20.9" stroke-dasharray="none"></path></g></g></g><g id="g-root-1.cu_sy_18f2y30f0zo5l-stroke" data-item-order="999903278" data-item-id="1.cu_sy_18f2y30f0zo5l" data-item-class="Part Indexed Indexed_1 Fill Stroke" data-item-index="1" data-renderer-id="0" transform="translate(307.0938720703125, 110)"><g id="1.cu_sy_18f2y30f0zo5l-stroke" fill="none" stroke-linecap="round" stroke-linejoin="round" stroke-miterlimit="4" stroke="#000000" stroke-width="2"><g><path d="M 32.3598 59.8943C 31.3158 63.0331 31.3182 66.5379 32.6141 69.8609C 34.6504 75.0849 39.345 78.4988 44.5629 79.1668L 47.5396 79.3436C 53.3572 79.8447 58.6689 83.5484 60.9224 89.3299C 62.4132 93.1539 62.2972 97.2015 60.9051 100.7406C 63.8917 99.127 67.2436 98.1839 70.8818 98.1839C 75.9022 98.1839 80.5129 99.9301 84.1313 102.8479L 84.1313 33.8284C 84.1313 20.6666 73.4093 10 60.1844 10C 49.8745 10 41.0851 16.4839 37.711 25.5786C 23.0373 29.8104 11.9425 42.4196 10 57.8607C 12.8656 56.311 16.1657 55.4243 19.6558 55.4243C 24.4763 55.4243 28.887 57.0969 32.3623 59.8968L 32.3598 59.8943ZM 84.128967 64.604847C 84.193067 56.028347 78.291567 48.250147 69.544067 46.238647M 53.757005 59.793642C 44.382605 56.939742 39.105505 47.066442 41.973605 37.736042C 44.841705 28.407942 54.764105 23.156942 64.138505 26.010942M 37.708496 25.578613C 39.878096 26.597913 41.820596 28.172313 43.303996 30.262413C 43.787796 30.945213 44.202496 31.652613 44.550496 32.382013M 64.168152 72.385742C 61.132152 75.328042 57.313852 77.555642 52.922852 78.705142C 51.491252 79.080842 50.054652 79.326442 48.628052 79.449242"></path></g></g></g><g id="g-root-1.line_sy_13z9fykf0zoxu-stroke" data-item-order="999903283" data-item-id="1.line_sy_13z9fykf0zoxu" data-item-class="Curve Stroke Part Indexed Indexed_1" data-item-index="1" data-renderer-id="0" transform="translate(218, 110)"><g id="1.line_sy_13z9fykf0zoxu-stroke" fill="none" stroke-linecap="round" stroke-linejoin="round" stroke-miterlimit="4" stroke="#000000" stroke-width="2"><g><path d="M 10 10L 94 10L 104.59 20.59"></path><path d="M 95.7 20.9L 104.9 20.9L 104.9 11.7" stroke-dasharray="none"></path></g></g></g><g id="g-root-4.cu_sy_v3mfpof0zpqj-stroke" data-item-order="999903286" data-item-id="4.cu_sy_v3mfpof0zpqj" data-item-class="Part Indexed Fill Stroke" data-item-index="4" data-renderer-id="0" transform="translate(390.77484130859375, 155.42431640625)"><g id="4.cu_sy_v3mfpof0zpqj-stroke" fill="none" stroke-linecap="round" stroke-linejoin="round" stroke-miterlimit="4" stroke="#000000" stroke-width="2"><g><path d="M 23.8642 82.981C 36.7484 89.9292 52.8562 85.1694 59.8389 72.3489C 61.9418 68.488 62.9785 64.3348 63.0476 60.2283L 63.0895 57.6151C 63.2598 55.2131 63.9386 52.8087 65.1653 50.554C 67.4115 46.4279 71.0891 43.5691 75.2531 42.2502C 80.9843 35.5157 84.43 26.0526 84.43 16.538C 84.4029 15.1528 84.3017 13.7847 84.1338 12.4364C 81.2682 10.8866 77.9681 10 74.478 10C 69.6576 10 65.2468 11.6726 61.7715 14.4724C 62.8156 17.6112 62.8131 21.116 61.5173 24.439C 59.481 29.663 54.7864 33.0769 49.5685 33.7449L 46.5918 33.9218C 40.7741 34.4228 35.4624 38.1265 33.2089 43.908C 31.7181 47.732 31.8341 51.7796 33.2262 55.3187C 30.2396 53.7051 26.8878 52.762 23.2496 52.762C 18.2291 52.762 13.6185 54.5082 10 57.426L 10 61.0806C 10.4542 69.9739 15.4178 78.4276 23.8617 82.981L 23.8642 82.981ZM 105.456983 50.890523C 105.456983 35.933323 96.919283 22.962923 84.432383 16.535523C 84.432383 26.052623 80.986783 35.513323 75.255483 42.250223C 71.091583 43.569123 67.413883 46.430323 65.167783 50.554023C 63.938583 52.808723 63.262283 55.213123 63.091983 57.615123L 63.049983 60.228323C 62.980883 64.334823 61.944183 68.488023 59.841283 72.348923C 52.858583 85.169323 36.750783 89.929123 23.866583 82.981023C 15.422683 78.427523 10.459083 69.973923 10.004883 61.080623L 10.004883 114.189823C 14.255183 116.584523 19.169483 117.952523 24.404683 117.952523C 26.112683 117.952523 27.786083 117.807623 29.412683 117.527623L 29.422583 117.527623C 31.705683 125.158523 38.811783 130.726323 47.226083 130.726323C 57.484083 130.726323 65.797183 122.451923 65.797183 112.247123C 65.797183 110.537723 65.562683 108.882323 65.128283 107.310523L 65.170183 107.298223C 77.592883 107.298223 87.663383 97.277623 87.663383 84.916423C 87.663383 84.412923 87.613983 83.418223 87.613983 83.418223C 96.546583 77.695623 102.968983 68.429023 104.874483 57.617623C 105.259483 55.434123 105.461883 53.186923 105.461883 50.895423L 105.456983 50.890523ZM 76.413086 65.526001C 82.726886 69.160901 87.103086 75.762701 87.611486 83.415701M 48.245419 100.1954C 44.775019 96.2559 42.672119 91.0958 42.672119 85.4469M 75.253052 42.250238C 79.634152 40.862538 84.553452 41.184238 88.914752 43.534738M 55.934082 77.901978C 57.718582 80.782878 60.255982 83.258578 63.447382 85.007278C 64.488982 85.577078 65.557782 86.048678 66.646282 86.421978M 33.228638 55.318726C 34.331938 58.123526 36.237438 60.609026 38.784638 62.406826M 31.821725 101.914551C 29.819925 104.864251 28.650025 108.420551 28.650025 112.247051C 28.650025 114.081751 28.919025 115.852551 29.417625 117.525051"></path></g></g></g><g id="g-root-4.line_sy_qnsxl8f0zqis-stroke" data-item-order="999903291" data-item-id="4.line_sy_qnsxl8f0zqis" data-item-class="Curve Stroke Part Indexed" data-item-index="4" data-renderer-id="0" transform="translate(501.99993896484375, 206)"><g id="4.line_sy_qnsxl8f0zqis-stroke" fill="none" stroke-linecap="round" stroke-linejoin="round" stroke-miterlimit="4" stroke="#000000" stroke-width="2"><g><path d="M 62.000061 10L 12.000061 10"></path><path d="M 18.000061 3.5L 11.500061 10L 18.000061 16.5" stroke-dasharray="none"></path></g></g></g><g id="g-root-3.cu_sy_qnsxl8f0zqit-stroke" data-item-order="999903294" data-item-id="3.cu_sy_qnsxl8f0zqit" data-item-class="Part Indexed Fill Stroke" data-item-index="3" data-renderer-id="0" transform="translate(285.77069091796875, 155.42431640625)"><g id="3.cu_sy_qnsxl8f0zqit-stroke" fill="none" stroke-linecap="round" stroke-linejoin="round" stroke-miterlimit="4" stroke="#000000" stroke-width="2"><g><path d="M 40.201495 42.2502C 44.365395 43.5691 48.043095 46.4303 50.289195 50.554C 51.518395 52.8087 52.194695 55.2131 52.364995 57.6151L 52.406995 60.2283C 52.476095 64.3348 53.510295 68.488 55.615695 72.3489C 62.598395 85.1694 78.706195 89.9292 91.590395 82.981C 100.034295 78.4276 104.997895 69.9739 105.452095 61.0806L 105.452095 57.426C 101.833595 54.5082 97.222995 52.762 92.202595 52.762C 88.566795 52.762 85.212495 53.7051 82.225895 55.3187C 83.617995 51.7796 83.731495 47.7296 82.243195 43.908C 79.989695 38.1265 74.677995 34.4228 68.860295 33.9218L 65.883595 33.7449C 60.665795 33.0769 55.971095 29.663 53.934795 24.439C 52.638995 21.116 52.636495 17.6112 53.680595 14.4724C 50.205295 11.6726 45.794595 10 40.974095 10C 37.483995 10 34.183895 10.8891 31.318295 12.4364C 31.147995 13.7823 31.049295 15.1503 31.022095 16.538C 31.022095 26.0551 34.467795 35.5157 40.198995 42.2526L 40.201495 42.2502ZM 91.5904 82.980942C 78.7061 89.929042 62.5984 85.169242 55.6157 72.348742C 53.5127 68.487842 52.4761 64.334742 52.407 60.228242L 52.365 57.615042C 52.1947 55.213042 51.5159 52.808542 50.2892 50.553942C 48.0431 46.427742 44.3654 43.568942 40.2015 42.250042C 34.4702 35.515642 31.0245 26.052542 31.0245 16.537842C 18.5352 22.965242 10 35.938042 10 50.892842C 10 53.186742 10.2024 55.431542 10.5874 57.615042C 12.4929 68.428942 18.9153 77.693042 27.8479 83.415642C 27.8479 83.415642 27.7985 84.410342 27.7985 84.913842C 27.7985 97.275042 37.869 107.295642 50.2917 107.295642L 50.3336 107.307942C 49.8968 108.879742 49.6647 110.535142 49.6647 112.244542C 49.6647 122.451842 57.9803 130.723742 68.2358 130.723742C 76.6501 130.723742 83.7562 125.155942 86.0393 117.522542L 86.0492 117.522542C 87.6757 117.804942 89.3492 117.949942 91.0572 117.949942C 96.2924 117.949942 101.2042 116.581842 105.457 114.187242L 105.457 61.078042C 105.0028 69.971342 100.0392 78.424942 91.5953 82.978442L 91.5904 82.980942ZM 39.041295 65.526001C 32.727595 69.160901 28.351395 75.762701 27.842895 83.415701M 67.208984 100.1954C 70.679384 96.2559 72.782284 91.0958 72.782284 85.4469M 40.201373 42.250238C 35.820273 40.862538 30.901073 41.184238 26.539673 43.534738M 59.520427 77.901978C 57.735927 80.782878 55.198527 83.258578 52.007027 85.007278C 50.965427 85.577078 49.896727 86.048678 48.808227 86.421978M 82.2258 55.318726C 81.1225 58.123526 79.217 60.609026 76.6698 62.406826M 83.635254 101.914551C 85.636954 104.864251 86.806954 108.420551 86.806954 112.247051C 86.806954 114.081751 86.537954 115.852551 86.039354 117.525051"></path></g></g></g><g id="g-root-3.line_sy_hssefgf0zo5q-stroke" data-item-order="999903299" data-item-id="3.line_sy_hssefgf0zo5q" data-item-class="Curve Stroke Part Indexed" data-item-index="3" data-renderer-id="0" transform="translate(218.00006103515625, 206)"><g id="3.line_sy_hssefgf0zo5q-stroke" fill="none" stroke-linecap="round" stroke-linejoin="round" stroke-miterlimit="4" stroke="#000000" stroke-width="2"><g><path d="M 9.999939 10L 59.999939 10"></path><path d="M 53.999939 16.5L 60.499939 10L 53.999939 3.5" stroke-dasharray="none"></path></g></g></g><g id="g-root-1_dhcb2kf12jv0-stroke" data-item-order="1000000000" data-item-id="1_dhcb2kf12jv0" data-item-class="Icon Stroke Indexed" data-item-index="4" data-renderer-id="0" transform="translate(566, 188)"><g id="1_dhcb2kf12jv0-stroke" fill="none" stroke-linecap="round" stroke-linejoin="round" stroke-miterlimit="4" stroke="#000000" stroke-width="2"><g><path d="M 16.75 10.75L 39.25 10.75L 39.25 18.25L 16.75 18.25ZM 37.75 45.25C 40.232208 45.242592 42.242592 43.232208 42.250004 40.750004L 42.25 28.75C 42.25 24.721001 38.716 22.459 37.071999 21.623501C 36.567783 21.368006 36.250011 20.850754 36.25 20.2855L 36.25 18.25L 19.75 18.25L 19.75 20.2855C 19.74999 20.850754 19.432217 21.368006 18.927999 21.623501C 17.284 22.459 13.75 24.721001 13.75 28.75L 13.75 40.75C 13.757413 43.232208 15.767797 45.242592 18.25 45.250004ZM 21.25 10.75L 21.25 18.25M 30.25 10.75L 30.25 18.25M 25.75 10.75L 25.75 18.25M 34.75 10.75L 34.75 18.25M 13.75 28.75L 42.25 28.75L 42.25 37.75L 13.75 37.75ZM 20.5 33.25L 35.5 33.25"></path></g></g></g><g id="g-root-tx_synthesi_1hjgrv0f0so3x-stroke" data-item-order="1000000000" data-item-id="tx_synthesi_1hjgrv0f0so3x" data-item-class="Label Stroke Indexed ColorStrokeGray" data-item-index="4" data-renderer-id="0" transform="translate(614, 182)"></g><g id="g-root-1_mb3w24f15cea-stroke" data-item-order="1000000000" data-item-id="1_mb3w24f15cea" data-item-class="Icon Stroke Indexed" data-item-index="3" data-renderer-id="0" transform="translate(170, 188)"><g id="1_mb3w24f15cea-stroke" fill="none" stroke-linecap="round" stroke-linejoin="round" stroke-miterlimit="4" stroke="#000000" stroke-width="2"><g><path d="M 39.25 22L 39.25 25M 40.75 23.5L 37.75 23.5M 43.75 17.5L 43.75 20.5M 45.25 19L 42.25 19M 38.5 44.5L 44.284 44.5C 44.624218 44.499413 44.939041 44.319897 45.112816 44.027405C 45.286591 43.734909 45.293686 43.372574 45.1315 43.073502L 40.823502 34.045002C 40.775307 33.944309 40.750195 33.834129 40.75 33.7225L 40.75 28.75C 40.75 28.335787 40.414215 28 40 28L 37 28C 36.585785 28 36.25 28.335787 36.25 28.75L 36.25 33.7225C 36.249805 33.834129 36.224693 33.944309 36.176498 34.045002L 31.8685 43.073502C 31.706314 43.372574 31.713411 43.734909 31.887184 44.027405C 32.060959 44.319897 32.375782 44.499413 32.716 44.5L 38.5 44.5M 24.913 32.5L 19.4995 32.5C 20.305254 31.130573 20.768381 29.586817 20.849499 28L 23.5495 28C 23.633965 29.588093 24.101801 31.132107 24.912998 32.5ZM 17.857 32.5L 26.5555 32.5M 12.25 11.5L 31.75 11.5C 31.75 11.5 33.25 11.5 33.25 13L 33.25 26.5C 33.25 26.5 33.25 28 31.75 28L 12.25 28C 12.25 28 10.75 28 10.75 26.5L 10.75 13C 10.75 13 10.75 11.5 12.25 11.5M 10.75 23.5L 33.25 23.5M 33.335499 40L 43.664501 40"></path></g></g></g><g id="g-root-tx_software_94n9jgf0soax-stroke" data-item-order="1000000000" data-item-id="tx_software_94n9jgf0soax" data-item-class="Label Stroke Indexed ColorStrokeGray" data-item-index="8" data-renderer-id="0" transform="translate(614, 386)"></g><g id="g-root-tx_comprehe_dcywb0f0zoxz-stroke" data-item-order="1000000000" data-item-id="tx_comprehe_dcywb0f0zoxz" data-item-class="Label Stroke Title ColorStrokeGray" data-item-index="none" data-renderer-id="0" transform="translate(230, 2)"></g><g id="g-root-tx_purifica_1qf3s3wf0snb8-stroke" data-item-order="1000000000" data-item-id="tx_purifica_1qf3s3wf0snb8" data-item-class="Label Stroke Indexed ColorStrokeGray" data-item-index="5" data-renderer-id="0" transform="translate(50, 278)"></g><g id="g-root-2_8yefikf115am-stroke" data-item-order="1000000000" data-item-id="2_8yefikf115am" data-item-class="Icon Stroke Indexed" data-item-index="5" data-renderer-id="0" transform="translate(170, 284)"><g id="2_8yefikf115am-stroke" fill="none" stroke-linecap="round" stroke-linejoin="round" stroke-miterlimit="4" stroke="#000000" stroke-width="2"><g><path d="M 42.716499 13.15C 43.057396 12.695474 43.112228 12.087356 42.858143 11.57918C 42.60405 11.071004 42.08466 10.75 41.516499 10.75L 14.485 10.75C 13.916842 10.75 13.397448 11.071004 13.143359 11.57918C 12.889271 12.087356 12.944105 12.695474 13.285 13.15L 25 28.888L 25 43.75C 25 44.578426 25.671572 45.25 26.5 45.25L 29.5 45.25C 30.328428 45.25 31 44.578426 31 43.75L 31 28.888Z"></path></g></g></g><g id="g-root-resi_zoftosf0yayp-stroke" data-item-order="1000000000" data-item-id="resi_zoftosf0yayp" data-item-class="Icon Stroke Indexed" data-item-index="6" data-renderer-id="0" transform="translate(566, 284)"><g id="resi_zoftosf0yayp-stroke" fill="none" stroke-linecap="round" stroke-linejoin="round" stroke-miterlimit="4" stroke="#000000" stroke-width="2"><g><path d="M 11.875 45.084999L 44.125 45.084999M 33.188499 20.527L 22.726 41.212002C 22.623724 41.408783 22.650259 41.647827 22.793201 41.817383C 22.936146 41.986946 23.167257 42.053524 23.378502 41.986L 25.2565 41.386002C 29.681042 40.273964 33.399422 37.285347 35.436996 33.203499L 38.390499 27.5035C 39.356529 25.63744 38.627277 23.341576 36.761497 22.375ZM 10 10M 33.1945 20.530001L 37.5145 12.184C 38.111332 11.032017 39.529079 10.582046 40.681 11.179L 40.681 11.179C 41.828114 11.777902 42.274803 13.191756 41.68 14.341L 37.360001 22.685499L 37.360001 22.685499L 33.1945 20.5285L 33.1945 20.5285ZM 17.876499 28.320999L 20.931999 35.045502M 14.8765 38.820999L 18.646 39.449501M 35.855499 40.199501L 39.626499 39.570999"></path></g></g></g><g id="g-root-tx_mechanic_1uuat58f0spor-stroke" data-item-order="1000000000" data-item-id="tx_mechanic_1uuat58f0spor" data-item-class="Label Stroke Indexed ColorStrokeGray" data-item-index="6" data-renderer-id="0" transform="translate(614, 278)"></g><g id="g-root-tx_material_1d3n9qkf0sow6-stroke" data-item-order="1000000000" data-item-id="tx_material_1d3n9qkf0sow6" data-item-class="Label Stroke Indexed ColorStrokeGray" data-item-index="3" data-renderer-id="0" transform="translate(2, 182)"></g><g id="g-root-line_1lw5te4f184cg-stroke" data-item-order="1000000000" data-item-id="line_1lw5te4f184cg" data-item-class="Icon Stroke Indexed" data-item-index="2" data-renderer-id="0" transform="translate(566, 92)"><g id="line_1lw5te4f184cg-stroke" fill="none" stroke-linecap="round" stroke-linejoin="round" stroke-miterlimit="4" stroke="#000000" stroke-width="2"><g><path d="M 10.756 45.25L 45.256001 45.25M 16.75 38.5C 16.75 38.085785 16.414213 37.75 16 37.75L 13 37.75C 12.585787 37.75 12.25 38.085785 12.25 38.5L 12.25 45.25L 16.75 45.25ZM 25.75 31C 25.75 30.585787 25.414213 30.25 25 30.25L 22 30.25C 21.585787 30.25 21.25 30.585787 21.25 31L 21.25 45.25L 25.75 45.25ZM 34.75 34C 34.75 33.585785 34.414215 33.25 34 33.25L 31 33.25C 30.585787 33.25 30.25 33.585785 30.25 34L 30.25 45.25L 34.75 45.25ZM 43.75 23.5C 43.75 23.085787 43.414215 22.75 43 22.75L 40 22.75C 39.585785 22.75 39.25 23.085787 39.25 23.5L 39.25 45.25L 43.75 45.25ZM 12.256 27.25C 12.256001 28.492641 13.263359 29.5 14.506001 29.5C 15.748641 29.5 16.756001 28.492641 16.756001 27.25C 16.756001 26.00736 15.748641 25 14.506001 25C 13.263359 25 12.256001 26.00736 12.256001 27.25ZM 21.256001 19.75C 21.256001 20.992641 22.263359 22 23.506001 22C 24.74864 22 25.756001 20.992641 25.756001 19.75C 25.756001 18.50736 24.74864 17.5 23.506001 17.5C 22.263359 17.5 21.256001 18.50736 21.256001 19.75ZM 30.256001 22.75C 30.256001 23.992641 31.263359 25 32.506001 25C 33.748642 25 34.756001 23.992641 34.756001 22.75C 34.756001 21.50736 33.748642 20.5 32.506001 20.5C 31.263359 20.5 30.256001 21.50736 30.256001 22.75ZM 39.256001 13C 39.256001 14.24264 40.263359 15.25 41.506001 15.25C 42.748642 15.25 43.756001 14.24264 43.756001 13C 43.756001 11.75736 42.748642 10.75 41.506001 10.75C 40.263359 10.75 39.256001 11.75736 39.256001 13ZM 16.397499 25.674999L 21.778 21.190001M 25.640499 20.461L 30.3715 22.037498M 39.706001 14.35L 34.067501 20.9275"></path></g></g></g><g id="g-root-tx_simulati_4otrf0f0sp36-stroke" data-item-order="1000000000" data-item-id="tx_simulati_4otrf0f0sp36" data-item-class="Label Stroke Indexed ColorStrokeGray" data-item-index="7" data-renderer-id="0" transform="translate(38, 374)"></g><g id="g-root-2_quo8p8f0vifi-stroke" data-item-order="1000000000" data-item-id="2_quo8p8f0vifi" data-item-class="Icon Stroke Indexed" data-item-index="7" data-renderer-id="0" transform="translate(170, 380)"><g id="2_quo8p8f0vifi-stroke" fill="none" stroke-linecap="round" stroke-linejoin="round" stroke-miterlimit="4" stroke="#000000" stroke-width="2"><g><path d="M 28.75 27.25L 43.75 27.25C 44.578426 27.25 45.25 26.578428 45.25 25.75L 45.25 12.25C 45.25 11.421573 44.578426 10.75 43.75 10.75L 25.75 10.75C 24.921572 10.75 24.25 11.421573 24.25 12.25L 24.25 24.25M 34.75 27.25L 34.75 31.75M 39.256001 31.75L 30.256001 31.75M 12.25 28L 24.25 28C 24.25 28 25.75 28 25.75 29.5L 25.75 41.125C 25.75 41.125 25.75 42.625 24.25 42.625L 12.25 42.625C 12.25 42.625 10.75 42.625 10.75 41.125L 10.75 29.5C 10.75 29.5 10.75 28 12.25 28M 13 42.625L 13 45.25M 23.5 42.625L 23.5 45.25M 10.75 34.75L 25.75 34.75M 14.6875 38.125C 14.99816 38.125 15.25 38.376842 15.25 38.6875M 14.125 38.6875C 14.125 38.376842 14.376841 38.125 14.6875 38.125M 14.6875 39.25C 14.376841 39.25 14.125 38.998161 14.125 38.6875M 15.25 38.6875C 15.25 38.998161 14.99816 39.25 14.6875 39.25M 21.8125 38.125C 22.123159 38.125 22.375 38.376842 22.375 38.6875M 21.25 38.6875C 21.25 38.376842 21.501841 38.125 21.8125 38.125M 21.8125 39.25C 21.501841 39.25 21.25 38.998161 21.25 38.6875M 22.375 38.6875C 22.375 38.998161 22.123159 39.25 21.8125 39.25"></path></g></g></g><g id="g-root-2_94n9jgf0soaw-stroke" data-item-order="1000000000" data-item-id="2_94n9jgf0soaw" data-item-class="Icon Stroke Indexed Indexed_1" data-item-index="1" data-renderer-id="0" transform="translate(170, 92)"><g id="2_94n9jgf0soaw-stroke" fill="none" stroke-linecap="round" stroke-linejoin="round" stroke-miterlimit="4" stroke="#000000" stroke-width="2"><g><path d="M 21.25 22L 25 25.75L 21.25 29.5M 29.5 26.5L 35.5 26.5M 12.25 13L 43.75 13C 43.75 13 45.25 13 45.25 14.5L 45.25 41.5C 45.25 41.5 45.25 43 43.75 43L 12.25 43C 12.25 43 10.75 43 10.75 41.5L 10.75 14.5C 10.75 14.5 10.75 13 12.25 13M 14.5 16L 41.5 16C 41.5 16 42.25 16 42.25 16.75L 42.25 39.25C 42.25 39.25 42.25 40 41.5 40L 14.5 40C 14.5 40 13.75 40 13.75 39.25L 13.75 16.75C 13.75 16.75 13.75 16 14.5 16"></path></g></g></g><g id="g-root-tx_programm_18ntrm4f0spog-stroke" data-item-order="1000000000" data-item-id="tx_programm_18ntrm4f0spog" data-item-class="Label Stroke Indexed Indexed_1 ColorStrokeGray" data-item-index="1" data-renderer-id="0" transform="translate(26, 86)"></g><g id="g-root-code_1430dn0f0snbf-stroke" data-item-order="1000000000" data-item-id="code_1430dn0f0snbf" data-item-class="Icon Stroke Indexed" data-item-index="8" data-renderer-id="0" transform="translate(566, 380)"><g id="code_1430dn0f0snbf-stroke" fill="none" stroke-linecap="round" stroke-linejoin="round" stroke-miterlimit="4" stroke="#000000" stroke-width="2"><g><path d="M 12.25 17.506001L 43.75 17.506001C 43.75 17.506001 45.25 17.506001 45.25 19.006001L 45.25 37.006001C 45.25 37.006001 45.25 38.506001 43.75 38.506001L 12.25 38.506001C 12.25 38.506001 10.75 38.506001 10.75 37.006001L 10.75 19.006001C 10.75 19.006001 10.75 17.506001 12.25 17.506001M 18.25 32.5L 18.25 25.75C 18.25 24.50736 19.25736 23.5 20.5 23.5C 21.742641 23.5 22.75 24.50736 22.75 25.75L 22.75 32.5M 18.25 28.006001L 22.75 28.006001M 30.25 25.75C 30.25 26.992641 29.242641 28 28 28L 25.75 28L 25.75 23.5L 28 23.5C 29.242641 23.5 30.25 24.507359 30.25 25.75ZM 25.75 32.506001L 25.75 28.006001M 37.75 25.75C 37.75 26.992641 36.742641 28 35.5 28L 33.25 28L 33.25 23.5L 35.5 23.5C 36.742641 23.5 37.75 24.507359 37.75 25.75ZM 33.25 32.506001L 33.25 28.006001"></path></g></g></g><g id="g-root-tx_machinel_14809hof0spov-stroke" data-item-order="1000000000" data-item-id="tx_machinel_14809hof0spov" data-item-class="Label Stroke Indexed ColorStrokeGray" data-item-index="2" data-renderer-id="0" transform="translate(614, 98)"></g></g></g></svg>